<?xml version="1.0" standalone="no"?>
<!DOCTYPE svg PUBLIC "-//W3C//DTD SVG 20010904//EN"
 "http://www.w3.org/TR/2001/REC-SVG-20010904/DTD/svg10.dtd">
<svg version="1.0" xmlns="http://www.w3.org/2000/svg"
 width="588.000000pt" height="588.000000pt" viewBox="0 0 588.000000 588.000000"
 preserveAspectRatio="xMidYMid meet">
<metadata>
Created by potrace 1.11, written by Peter Selinger 2001-2013
</metadata>
<g transform="translate(0.000000,588.000000) scale(0.100000,-0.100000)"
fill="#000000" stroke="none">
<path d="M2191 5854 c-23 -29 -26 -59 -12 -96 7 -18 -12 -110 -75 -368 -79
-324 -106 -435 -234 -965 -28 -115 -69 -284 -91 -375 -98 -402 -110 -453 -106
-456 2 -2 25 18 51 45 45 46 49 54 77 167 16 65 34 136 40 157 l10 38 18 -22
17 -22 130 74 c71 40 179 103 239 140 294 179 568 317 750 379 44 15 84 35 90
44 15 23 -12 67 -57 91 -33 17 -43 18 -92 8 -64 -14 -265 -101 -416 -180 -189
-100 -554 -337 -621 -404 -21 -21 -39 -35 -39 -30 0 5 29 126 64 268 36 142
126 506 200 808 75 303 139 555 144 561 4 6 15 22 24 35 31 45 33 75 4 103
-35 36 -87 35 -115 0z"/>
<path d="M2970 5733 c-186 -18 -440 -62 -440 -75 0 -11 145 -83 249 -123 161
-63 264 -107 362 -157 61 -31 105 -47 117 -44 14 5 24 33 46 134 16 70 39 156
52 191 13 35 24 67 24 72 0 8 -332 10 -410 2z"/>
<path d="M4565 5673 c-102 -5 -315 -33 -419 -54 -129 -26 -315 -78 -342 -94
-23 -15 -42 -74 -69 -215 -9 -47 -25 -123 -36 -168 -15 -65 -17 -87 -8 -98 6
-8 16 -14 21 -14 8 0 166 88 253 141 17 11 37 22 45 26 29 13 315 186 459 277
261 165 301 191 301 199 0 7 -75 7 -205 0z"/>
<path d="M4830 5611 c-168 -78 -265 -129 -480 -254 -172 -100 -572 -346 -580
-356 -3 -3 -24 -19 -47 -34 -26 -16 -43 -35 -43 -46 0 -21 28 -35 51 -26 8 2
60 11 117 19 118 16 89 2 542 275 157 95 358 209 447 254 152 77 162 83 172
118 17 56 14 97 -8 109 -11 5 -21 10 -23 9 -2 0 -68 -30 -148 -68z"/>
<path d="M3392 5578 c-31 -84 -39 -116 -62 -228 -30 -148 -60 -253 -78 -267
-23 -19 -49 -16 -72 7 -36 36 -355 27 -680 -20 -260 -38 -361 -57 -374 -71
-13 -13 -86 -295 -86 -330 0 -25 41 -28 159 -13 393 53 516 66 671 70 199 6
230 -1 263 -66 21 -40 17 -80 -14 -170 -11 -33 -31 -106 -44 -162 -14 -57 -40
-156 -60 -221 -38 -128 -46 -232 -24 -312 15 -56 31 -70 101 -90 79 -22 161
-14 183 18 21 30 52 137 129 441 36 142 68 262 72 265 3 3 29 6 57 7 138 2
575 68 902 135 83 16 191 32 240 35 125 7 135 10 135 38 0 13 13 70 30 127 16
57 30 125 30 152 l0 47 -85 0 c-120 0 -765 -82 -1029 -131 -110 -20 -171 -19
-179 4 -7 21 20 129 73 293 54 166 80 279 80 345 0 48 -20 61 -76 49 -21 -5
-61 -10 -88 -10 -46 0 -53 3 -93 46 -24 26 -43 51 -43 55 0 5 -4 9 -9 9 -5 0
-18 -24 -29 -52z"/>
<path d="M2271 5584 c-25 -31 -28 -90 -7 -120 8 -12 41 -29 73 -39 108 -34
337 -122 523 -201 171 -72 190 -78 255 -79 73 0 135 18 135 40 0 42 -168 138
-440 250 -138 57 -475 175 -499 175 -11 0 -29 -12 -40 -26z"/>
<path d="M2242 5398 c-23 -29 -43 -82 -67 -173 -27 -104 -32 -165 -14 -165 6
0 73 11 148 25 125 23 492 75 526 75 36 0 7 21 -102 72 -65 31 -138 63 -163
71 -25 9 -103 36 -174 61 -144 52 -140 51 -154 34z"/>
<path d="M4870 5376 c-68 -24 -176 -79 -245 -126 -66 -45 -185 -114 -271 -159
-92 -47 -120 -72 -110 -97 6 -15 17 -16 84 -10 42 3 151 11 242 17 222 14 289
24 306 46 20 26 51 136 64 228 6 44 14 90 17 103 7 28 -4 28 -87 -2z"/>
<path d="M2292 4640 c-149 -27 -245 -50 -259 -62 -21 -17 -51 -92 -74 -189
-20 -82 -21 -91 -7 -106 17 -17 8 -21 204 92 322 187 464 271 464 278 0 14
-226 5 -328 -13z"/>
<path d="M4520 4529 c-310 -41 -523 -78 -539 -94 -35 -34 13 -54 304 -130 173
-46 288 -81 339 -106 22 -10 45 -19 52 -19 6 0 21 40 34 93 12 50 35 134 51
186 16 51 29 95 29 97 0 7 -55 2 -270 -27z"/>
<path d="M2940 4496 c-163 -68 -341 -158 -487 -248 -143 -86 -265 -177 -257
-189 8 -14 99 -11 293 8 209 20 296 12 393 -37 59 -30 62 -31 78 -13 10 10 34
81 54 158 19 77 47 178 61 224 14 47 25 93 25 103 0 17 -22 49 -32 47 -2 0
-59 -24 -128 -53z"/>
<path d="M3650 4390 c-11 -11 -20 -24 -20 -28 0 -22 71 -63 200 -117 92 -38
768 -265 790 -265 10 0 28 12 39 26 43 55 19 102 -73 143 -77 35 -218 81 -366
121 -63 17 -184 56 -268 86 -125 44 -165 54 -217 54 -52 0 -69 -4 -85 -20z"/>
<path d="M3455 4208 c-9 -40 -32 -125 -50 -188 -30 -103 -65 -253 -65 -279 0
-21 41 -20 116 3 268 84 624 165 817 187 103 12 127 21 90 32 -10 3 -171 57
-358 120 -286 97 -374 130 -521 193 -7 3 -18 -22 -29 -68z"/>
<path d="M2142 3820 c-181 -48 -348 -163 -444 -308 -44 -66 -48 -87 -15 -78
12 3 62 13 111 22 281 49 588 -54 724 -243 29 -40 49 -60 55 -54 13 13 -9 96
-40 149 -13 24 -23 46 -20 48 2 3 30 -7 62 -21 70 -30 68 -30 54 -2 -20 38
-82 93 -147 128 -34 19 -62 37 -62 42 0 4 37 7 83 7 l82 1 -39 33 c-42 36
-120 65 -206 76 l-55 7 38 17 c22 9 63 22 93 28 30 6 54 14 54 18 0 19 -108
33 -214 27 l-111 -5 55 49 c30 27 65 52 77 55 13 4 23 10 23 15 0 15 -80 9
-158 -11z"/>
<path d="M1725 3386 c-97 -23 -108 -36 -148 -160 -19 -61 -81 -255 -137 -431
-56 -176 -145 -453 -196 -615 -52 -162 -96 -301 -99 -309 -4 -10 -10 -7 -23
10 -43 57 -97 162 -141 272 -6 15 -14 27 -18 27 -8 0 -254 -765 -253 -785 1
-18 87 -125 185 -231 176 -190 422 -343 641 -400 129 -33 309 -38 429 -11 362
83 640 432 687 865 34 311 -105 665 -312 793 -22 13 -39 26 -39 29 0 3 22 22
48 42 65 50 155 169 187 249 69 166 29 352 -102 481 -134 132 -302 189 -549
187 -60 0 -133 -6 -160 -13z m462 -312 c36 -22 52 -41 67 -76 19 -45 19 -46
-3 -117 -25 -84 -77 -141 -149 -166 -49 -16 -197 -21 -206 -6 -3 4 24 97 61
206 l65 197 58 -4 c42 -3 72 -12 107 -34z m-240 -765 c176 -85 267 -335 198
-544 -79 -240 -245 -370 -440 -344 -59 8 -155 43 -185 67 l-20 17 39 120 c106
323 221 682 221 691 0 42 94 38 187 -7z"/>
<path d="M2049 3031 c-51 -51 -50 -89 4 -148 23 -26 79 -31 120 -12 24 11 57
66 57 95 0 28 -30 74 -60 89 -48 25 -78 19 -121 -24z"/>
<path d="M1019 3237 c-57 -21 -97 -54 -126 -105 -66 -111 -15 -256 110 -312
142 -65 307 45 307 203 0 32 -7 74 -15 92 -20 40 -69 91 -108 112 -41 21 -125
26 -168 10z m159 -54 c48 -23 85 -83 89 -146 13 -171 -190 -261 -309 -136 -41
43 -53 85 -45 156 13 121 144 183 265 126z"/>
<path d="M997 3133 c-4 -3 -7 -57 -7 -120 l0 -113 35 0 c35 0 35 0 35 46 0 44
1 45 28 42 15 -2 28 -9 28 -15 1 -7 2 -26 3 -43 1 -22 6 -30 20 -30 26 0 52
10 47 19 -6 9 -19 83 -18 101 1 8 4 30 8 47 10 50 -23 72 -107 73 -36 0 -69
-3 -72 -7z m118 -64 c0 -8 -12 -15 -27 -17 -24 -3 -28 0 -28 21 0 23 3 24 28
18 15 -4 27 -14 27 -22z"/>
<path d="M2627 2943 c4 -65 1 -105 -12 -153 -18 -72 -43 -131 -59 -142 -6 -4
-8 -10 -4 -13 6 -6 333 121 356 138 7 6 11 13 10 17 -4 9 -92 81 -210 173
l-87 67 6 -87z"/>
<path d="M906 937 c-15 -67 -66 -277 -112 -466 -46 -189 -83 -345 -82 -347 2
-1 19 -5 38 -9 l35 -6 89 368 c49 202 98 408 109 457 l21 89 -23 18 c-13 11
-28 19 -35 19 -6 0 -24 -55 -40 -123z"/>
<path d="M1280 795 c0 -30 69 -195 132 -314 35 -67 56 -116 50 -120 -6 -3 -54
-31 -106 -61 -53 -30 -96 -58 -96 -61 0 -8 116 -19 200 -19 l65 0 80 -75 c106
-100 175 -147 209 -143 l26 3 -60 95 c-63 98 -72 125 -42 116 101 -31 312 -58
312 -39 0 6 -35 23 -77 38 -163 58 -318 147 -380 219 -28 31 -95 194 -109 265
-4 18 -14 35 -23 38 -9 3 -47 18 -86 35 -38 17 -76 33 -82 35 -8 3 -13 -2 -13
-12z"/>
<path d="M1818 703 c-55 -5 -57 -11 -24 -70 l25 -43 -47 -21 c-26 -11 -64 -28
-84 -36 -77 -31 -31 -48 105 -40 l91 5 42 -37 c84 -73 270 -174 345 -187 l34
-5 -55 48 c-82 72 -180 165 -180 172 0 3 32 4 72 3 78 -4 178 5 178 16 0 4
-64 22 -142 41 -79 18 -170 43 -203 55 -57 20 -60 23 -69 64 -7 29 -15 41 -25
40 -9 -1 -37 -3 -63 -5z"/>
</g>
</svg>
